<?xml version="1.0" encoding="utf-8"?>
<!-- Generator: Adobe Illustrator 26.5.0, SVG Export Plug-In . SVG Version: 6.00 Build 0)  -->
<svg version="1.1" id="Layer_1" xmlns="http://www.w3.org/2000/svg" xmlns:xlink="http://www.w3.org/1999/xlink" x="0px" y="0px"
	 viewBox="0 0 888 929" style="enable-background:new 0 0 888 929;" xml:space="preserve">
<style type="text/css">
	.st0{fill:none;stroke:#000000;stroke-linecap:round;stroke-linejoin:round;stroke-miterlimit:10;}
	.st1{font-family:'Helvetica';}
	.st2{font-size:10px;}
	.st3{fill:none;stroke:#000000;stroke-width:2;stroke-miterlimit:10;}
	.st4{font-family:'ArialMT';}
	.st5{font-size:12px;}
	.st6{font-size:8px;}
</style>
<g>
	<g transform="translate(6,6)">
		<line class="st0" x1="178.7" y1="899" x2="222.1" y2="899"/>
		<text transform="matrix(1 0 0 1 192.4872 914)" class="st1 st2">0.4</text>
	</g>
	<g transform="translate(6,6)">
		<path class="st3" d="M315.2,19.5L392.7,7v25.1L315.2,19.5z"/>
		<path class="st3" d="M283.6,44.7l81.1-12.6v25.1L283.6,44.7z"/>
		<path class="st3" d="M398,220.4h-37.8v-18.8"/>
		<path class="st3" d="M263,349.5h-16.8v35.9"/>
		<path class="st3" d="M242.7,873.3h-96.3v-24.7"/>
		<path class="st3" d="M216.1,231.5h-20.2v165.5"/>
		<path class="st3" d="M149,541H4v153.8"/>
		<path class="st3" d="M400.8,722.7h-69.6v12.6"/>
		<path class="st3" d="M381.1,245.5H350v-22"/>
		<path class="st3" d="M322.4,471.6h-0.2V459"/>
		<path class="st3" d="M201.8,799.6h-13.9v24.3"/>
		<path class="st3" d="M322.1,459h-0.4v25.1"/>
		<path class="st3" d="M315.6,672.4h-131V685"/>
		<path class="st3" d="M303.9,584.6h-7.2v25.1"/>
		<path class="st3" d="M328.3,622.2h-26.7v12.6"/>
		<path class="st3" d="M265.7,32.1h-35.2v45.5"/>
		<path class="st3" d="M329.2,647.3h-27.6v-12.6"/>
		<path class="st3" d="M290.8,562.6h-94.9V397.1"/>
		<path class="st3" d="M330.7,421.3h-84.6v-35.9"/>
		<path class="st3" d="M323.3,521.8H323v-12.6"/>
		<path class="st3" d="M350,223.6H297v29.8"/>
		<path class="st3" d="M310.4,145.1h-49.5v-22"/>
		<path class="st3" d="M323,509.2h-1.2v-25.1"/>
		<path class="st3" d="M246.2,385.4h-30V231.5"/>
		<path class="st3" d="M322.4,446.4h-0.2V459"/>
		<path class="st3" d="M146.4,848.6H4V694.8"/>
		<path class="st3" d="M267.1,101.2h-6.3v22"/>
		<path class="st3" d="M315.9,283.2H297v-29.8"/>
		<path class="st3" d="M320.1,697.6H184.6V685"/>
		<path class="st3" d="M293,776h-91.1v23.5"/>
		<path class="st3" d="M400.8,170.2H368v12.6"/>
		<path class="st3" d="M283.1,848.2h-95.1v-24.3"/>
		<path class="st3" d="M325.6,396.2H263v-46.7"/>
		<path class="st3" d="M368,182.8h-7.9v18.8"/>
		<path class="st3" d="M393.9,295.8h-78v-12.6"/>
		<path class="st3" d="M351.9,333.4h-18.5v18.8"/>
		<path class="st3" d="M369.3,772.9H314v-18.8"/>
		<path class="st3" d="M355.6,371.1h-22.2v-18.8"/>
		<path class="st3" d="M296.7,609.7h-5.8v-47.1"/>
		<path class="st3" d="M0,694.8h4"/>
		<path class="st3" d="M283.6,44.7h-17.9V32.1"/>
		<path class="st3" d="M321.7,484.1h-5.1v31.4"/>
		<path class="st3" d="M314,754.1H293v22"/>
		<path class="st3" d="M230.5,77.6h-14.4v153.9"/>
		<path class="st3" d="M365.5,798H293v-22"/>
		<path class="st3" d="M400.7,270.7h-84.8v12.6"/>
		<path class="st3" d="M363.7,346h-11.8v-12.6"/>
		<path class="st3" d="M301.6,634.8h-5v-25.1"/>
		<path class="st3" d="M315.2,19.5h-49.5v12.6"/>
		<path class="st3" d="M327.8,120h-60.6v-18.8"/>
		<path class="st3" d="M279.1,302.8H263v46.7"/>
		<path class="st3" d="M360.2,201.6H350v22"/>
		<path class="st3" d="M331.6,94.9h-5.5V82.3"/>
		<path class="st3" d="M396.8,195.3H368v-12.6"/>
		<path class="st3" d="M334.6,572h-30.7v12.6"/>
		<path class="st3" d="M394.8,747.8h-63.7v-12.6"/>
		<path class="st3" d="M331.2,735.2H314v18.8"/>
		<path class="st3" d="M326.1,82.3h-59v18.8"/>
		<path class="st3" d="M187.9,823.9h-41.5v24.7"/>
		<path class="st3" d="M323.7,496.7H323v12.6"/>
		<path class="st3" d="M184.6,685H149V541"/>
		<path class="st3" d="M296.8,823.1h-95v-23.5"/>
		<path class="st3" d="M195.9,397.1H149v144"/>
		<path class="st3" d="M334.3,597.1h-30.4v-12.6"/>
		<path class="st3" d="M260.9,123.1h-30.3V77.6"/>
		<path class="st3" d="M333.4,352.3h-54.3v-49.4"/>
		<path class="st3" d="M323.4,546.9h-6.8v-31.4"/>
		<path class="st3" d="M359.5,69.8h-33.4v12.6"/>
		<path class="st3" d="M316.6,515.5h-25.8v47.1"/>
		<path class="st3" d="M297,253.4h-17.9v49.4"/>
		<path class="st3" d="M368.7,320.9h-16.8v12.6"/>
		<text transform="matrix(1 0 0 1 407.9766 224.437)" class="st4 st5">Wenling plagiopsetta astrovirus AVM87176.1   ORFb</text>
	</g>
	<g transform="matrix(1,0,0,1,341.5786,395.2168)">
		<text transform="matrix(1 0 0 1 0 11)" class="st4 st5">Dascyllus reticulatus astrovirus ORF1b </text>
	</g>
	<g transform="matrix(1,0,0,1,409.9139,294.7712)">
		<text transform="matrix(1 0 0 1 3.042969e-05 11)" class="st4 st5">Wenling longspine snipefish astrovirus AVM87174.1   ORFb</text>
	</g>
	<g transform="matrix(1,0,0,1,258.719,872.3333)">
		<text transform="matrix(1 0 0 1 0 11)" class="st4 st5">Chinese broad headed pond turtle astro like virus AVM87480.1</text>
	</g>
	<g transform="matrix(1,0,0,1,385.3109,771.8877)">
		<text transform="matrix(1 0 0 1 0 11)" class="st4 st5">Wuhan astro like virus AVM87125.1 </text>
	</g>
	<g transform="matrix(1,0,0,1,371.5682,370.1054)">
		<text transform="matrix(1 0 0 1 3.030469e-05 11)" class="st4 st5">Wenling rattails astrovirus 1 AVM87150.1   ORFb</text>
	</g>
	<g transform="matrix(1,0,0,1,380.7296,43.6573)">
		<text transform="matrix(1 0 0 1 0 11)" class="st4 st5">Avastrovirus</text>
	</g>
	<g transform="matrix(1,0,0,1,416.785,721.6649)">
		<text transform="matrix(1 0 0 1 3.017969e-05 11)" class="st4 st5">Guangdong catfish astro like virus AVM87132.1 </text>
	</g>
	<g transform="matrix(1,0,0,1,397.143,244.5484)">
		<text transform="matrix(1 0 0 1 0 11)" class="st4 st5">Eviota astrovirus ORF1b </text>
	</g>
	<g transform="matrix(1,0,0,1,338.3521,470.551)">
		<text transform="matrix(1 0 0 1 0 11)" class="st4 st5">Istigobius decoratus astrovirus ORF1b </text>
	</g>
	<g transform="matrix(1,0,0,1,331.6218,671.4421)">
		<text transform="matrix(1 0 0 1 3.017188e-05 11)" class="st4 st5">Zhejiang chinese fire belly newt astrovirus 1 AVM87170.1</text>
	</g>
	<g transform="matrix(1,0,0,1,381.5293,796.9991)">
		<text transform="matrix(1 0 0 1 0 11)" class="st4 st5">Murray Darling rainbowfish astrovirus</text>
	</g>
	<g transform="matrix(1,0,0,1,416.7371,269.6598)">
		<text transform="matrix(1 0 0 1 -3.045313e-05 11)" class="st4 st5">Wolfsnout goby astrovirus RdRp</text>
	</g>
	<g transform="matrix(1,0,0,1,344.3106,621.2193)">
		<text transform="matrix(1 0 0 1 0 11)" class="st4 st5">Beihai fish astrovirus 1 AVM87528.1   ORFb</text>
	</g>
	<g transform="matrix(1,0,0,1,379.6505,344.994)">
		<text transform="matrix(1 0 0 1 0 11)" class="st4 st5">Wenling rattails astrovirus 4 AVM87153.1</text>
	</g>
	<g transform="matrix(1,0,0,1,408.7002,18.5459)">
		<text transform="matrix(1 0 0 1 0 11)" class="st4 st5">Mammastrovirus</text>
	</g>
	<g transform="matrix(1,0,0,1,345.1937,646.3307)">
		<text transform="matrix(1 0 0 1 3.058594e-05 11)" class="st4 st5">Wenling righteye flounders astrovirus AVM87607.1   ORFb</text>
	</g>
	<g transform="matrix(1,0,0,1,346.7344,420.3282)">
		<text transform="matrix(1 0 0 1 -3.100000e-05 11)" class="st4 st5">Dongbei arctic lamprey astrovirus 1 AVM87496.1   ORFb</text>
	</g>
	<g transform="matrix(1,0,0,1,343.7815,118.9915)">
		<text transform="matrix(1 0 0 1 0 11)" class="st4 st5">European roller astrovirus QBZ38214.1</text>
	</g>
	<g transform="matrix(1,0,0,1,339.2597,520.7738)">
		<text transform="matrix(1 0 0 1 0 11)" class="st4 st5">Istigobius nigrocellatus astrovirus ORF1b </text>
	</g>
	<g transform="matrix(1,0,0,1,347.6216,93.8801)">
		<text transform="matrix(1 0 0 1 -3.096875e-05 11)" class="st4 st5">Bleniella astrovirus</text>
	</g>
	<g transform="matrix(1,0,0,1,412.8372,194.3256)">
		<text transform="matrix(1 0 0 1 -3.079688e-05 11)" class="st4 st5">Yancheng grey stingfish astrovirus AVM87186.1   ORFb</text>
	</g>
	<g transform="matrix(1,0,0,1,350.5642,570.9965)">
		<text transform="matrix(1 0 0 1 0 11)" class="st4 st5">Wenling crossorhombus astrovirus 1 AVM87178.1   ORFb</text>
	</g>
	<g transform="matrix(1,0,0,1,410.8065,746.7763)">
		<text transform="matrix(1 0 0 1 3.055469e-05 11)" class="st4 st5">Beihai mudskipper astro like virus AVM87121.1 </text>
	</g>
	<g transform="matrix(1,0,0,1,339.6774,495.6624)">
		<text transform="matrix(1 0 0 1 -3.083594e-05 11)" class="st4 st5">Asterropteryx semipunctatus astrovirus ORF1b  </text>
	</g>
	<g transform="matrix(1,0,0,1,326.3973,144.1029)">
		<text transform="matrix(1 0 0 1 3.086719e-05 11)" class="st4 st5">Chromis viridis astrovirus</text>
	</g>
	<g transform="matrix(1,0,0,1,312.8424,822.1105)">
		<text transform="matrix(1 0 0 1 0 11)" class="st4 st5">Western African lungfish astro like virus AVM87136.1</text>
	</g>
	<g transform="matrix(1,0,0,1,350.2655,596.1079)">
		<text transform="matrix(1 0 0 1 0 11)" class="st4 st5">Wenling yellow striped sandperch astrovirus AVM87184.1   ORFb</text>
	</g>
	<g transform="matrix(1,0,0,1,338.355,445.4396)">
		<text transform="matrix(1 0 0 1 -3.053125e-05 11)" class="st4 st5">Cabillus tongarevae Astrovirus ORF1b </text>
	</g>
	<g transform="matrix(1,0,0,1,339.4149,545.8852)">
		<text transform="matrix(1 0 0 1 3.099219e-05 11)" class="st4 st5">Istigobius goldmani astrovirus ORF1b </text>
	</g>
	<g transform="matrix(1,0,0,1,375.5154,68.7687)">
		<text transform="matrix(1 0 0 1 -3.014063e-05 11)" class="st4 st5">Plagiotremus tapeinosoma astrovirus</text>
	</g>
	<g transform="matrix(1,0,0,1,336.1229,696.5535)">
		<text transform="matrix(1 0 0 1 3.080469e-05 11)" class="st4 st5">Dongtou red stingray astrovirus AVM87143.1</text>
	</g>
	<g transform="matrix(1,0,0,1,384.6706,319.8826)">
		<text transform="matrix(1 0 0 1 0 11)" class="st4 st5">Wenling rattails astrovirus 3 AVM87501.1</text>
	</g>
	<g transform="matrix(1,0,0,1,416.785,169.2143)">
		<text transform="matrix(1 0 0 1 3.017969e-05 11)" class="st4 st5">Chaetodon baronessa astrovirus </text>
	</g>
	<g transform="matrix(1,0,0,1,299.0632,847.2219)">
		<text transform="matrix(1 0 0 1 3.042188e-05 11)" class="st4 st5">Wenling gobies fish astro like virus AVM87598.1</text>
	</g>
	<g transform="matrix(1,0,0,1,384.0064,183.77)">
		<text transform="matrix(1 0 0 1 0 8)" class="st1 st6">99</text>
	</g>
	<g transform="matrix(1,0,0,1,278.9554,350.5253)">
		<text transform="matrix(1 0 0 1 3.033594e-05 8)" class="st1 st6">98</text>
	</g>
	<g transform="matrix(1,0,0,1,367.8846,334.4383)">
		<text transform="matrix(1 0 0 1 3.055469e-05 8)" class="st1 st6">100</text>
	</g>
	<g transform="matrix(1,0,0,1,232.1111,232.5214)">
		<text transform="matrix(1 0 0 1 -1.501562e-05 8)" class="st1 st6">89</text>
	</g>
	<g transform="matrix(1,0,0,1,165.0332,542.0242)">
		<text transform="matrix(1 0 0 1 0 8)" class="st1 st6">100</text>
	</g>
	<g transform="matrix(1,0,0,1,312.6509,610.6636)">
		<text transform="matrix(1 0 0 1 -3.009375e-05 8)" class="st1 st6">41</text>
	</g>
	<g transform="matrix(1,0,0,1,299.6059,45.6573)">
		<text transform="matrix(1 0 0 1 0 8)" class="st1 st6">98</text>
	</g>
	<g transform="matrix(1,0,0,1,217.8096,800.5686)">
		<text transform="matrix(1 0 0 1 -3.068750e-05 8)" class="st1 st6">89</text>
	</g>
	<g transform="matrix(1,0,0,1,338.1187,459.9953)">
		<text transform="matrix(1 0 0 1 0 8)" class="st1 st6">99</text>
	</g>
	<g transform="matrix(1,0,0,1,337.7389,485.1067)">
		<text transform="matrix(1 0 0 1 0 8)" class="st1 st6">97</text>
	</g>
	<g transform="matrix(1,0,0,1,330.0381,755.0542)">
		<text transform="matrix(1 0 0 1 0 8)" class="st1 st6">99</text>
	</g>
	<g transform="matrix(1,0,0,1,246.5361,78.616)">
		<text transform="matrix(1 0 0 1 3.081250e-05 8)" class="st1 st6">92</text>
	</g>
	<g transform="matrix(1,0,0,1,319.8922,585.5522)">
		<text transform="matrix(1 0 0 1 0 8)" class="st1 st6">57</text>
	</g>
	<g transform="matrix(1,0,0,1,317.624,635.775)">
		<text transform="matrix(1 0 0 1 3.043750e-05 8)" class="st1 st6">45</text>
	</g>
	<g transform="matrix(1,0,0,1,331.2022,20.5459)">
		<text transform="matrix(1 0 0 1 0 8)" class="st1 st6">100</text>
	</g>
	<g transform="matrix(1,0,0,1,281.7468,33.1016)">
		<text transform="matrix(1 0 0 1 3.017188e-05 8)" class="st1 st6">100</text>
	</g>
	<g transform="matrix(1,0,0,1,306.8181,563.5798)">
		<text transform="matrix(1 0 0 1 0 8)" class="st1 st6">100</text>
	</g>
	<g transform="matrix(1,0,0,1,295.1024,303.8338)">
		<text transform="matrix(1 0 0 1 3.099219e-05 8)" class="st1 st6">95</text>
	</g>
	<g transform="matrix(1,0,0,1,376.1542,202.6035)">
		<text transform="matrix(1 0 0 1 -3.019531e-05 8)" class="st1 st6">90</text>
	</g>
	<g transform="matrix(1,0,0,1,365.9932,224.576)">
		<text transform="matrix(1 0 0 1 -3.093750e-05 8)" class="st1 st6">100</text>
	</g>
	<g transform="matrix(1,0,0,1,347.1538,736.2206)">
		<text transform="matrix(1 0 0 1 0 8)" class="st1 st6">99</text>
	</g>
	<g transform="matrix(1,0,0,1,342.1201,83.3244)">
		<text transform="matrix(1 0 0 1 3.018750e-05 8)" class="st1 st6">98</text>
	</g>
	<g transform="matrix(1,0,0,1,203.9271,824.8952)">
		<text transform="matrix(1 0 0 1 3.002344e-05 8)" class="st1 st6">98</text>
	</g>
	<g transform="matrix(1,0,0,1,338.9823,510.2181)">
		<text transform="matrix(1 0 0 1 0 8)" class="st1 st6">98</text>
	</g>
	<g transform="matrix(1,0,0,1,200.5946,685.9978)">
		<text transform="matrix(1 0 0 1 0 8)" class="st1 st6">98</text>
	</g>
	<g transform="matrix(1,0,0,1,211.9457,398.0506)">
		<text transform="matrix(1 0 0 1 -1.528906e-05 8)" class="st1 st6">91</text>
	</g>
	<g transform="matrix(1,0,0,1,262.1561,386.4267)">
		<text transform="matrix(1 0 0 1 3.092969e-05 8)" class="st1 st6">98</text>
	</g>
	<g transform="matrix(1,0,0,1,276.8706,124.1304)">
		<text transform="matrix(1 0 0 1 0 8)" class="st1 st6">94</text>
	</g>
	<g transform="matrix(1,0,0,1,349.3798,353.2719)">
		<text transform="matrix(1 0 0 1 -3.025781e-05 8)" class="st1 st6">100</text>
	</g>
	<g transform="matrix(1,0,0,1,162.4466,849.6142)">
		<text transform="matrix(1 0 0 1 0 8)" class="st1 st6">100</text>
	</g>
	<g transform="matrix(1,0,0,1,283.1442,102.1579)">
		<text transform="matrix(1 0 0 1 -3.096094e-05 8)" class="st1 st6">65</text>
	</g>
	<g transform="matrix(1,0,0,1,331.9322,284.2155)">
		<text transform="matrix(1 0 0 1 0 8)" class="st1 st6">95</text>
	</g>
	<g transform="matrix(1,0,0,1,332.605,516.4959)">
		<text transform="matrix(1 0 0 1 -3.053125e-05 8)" class="st1 st6">100</text>
	</g>
	<g transform="matrix(1,0,0,1,313.0474,254.3957)">
		<text transform="matrix(1 0 0 1 -3.071875e-05 8)" class="st1 st6">98</text>
	</g>
	<g transform="matrix(1,0,0,1,308.9519,777.0266)">
		<text transform="matrix(1 0 0 1 0 8)" class="st1 st6">100</text>
	</g>
</g>
</svg>
