<?xml version="1.0" encoding="utf-8"?>
<!-- Generator: Adobe Illustrator 26.5.0, SVG Export Plug-In . SVG Version: 6.00 Build 0)  -->
<svg version="1.1" id="Layer_1" xmlns="http://www.w3.org/2000/svg" xmlns:xlink="http://www.w3.org/1999/xlink" x="0px" y="0px"
	 viewBox="0 0 1347 3380" style="enable-background:new 0 0 1347 3380;" xml:space="preserve">
<style type="text/css">
	.st0{fill:none;stroke:#000000;stroke-linecap:round;stroke-linejoin:round;stroke-miterlimit:10;}
	.st1{font-family:'Helvetica';}
	.st2{font-size:10px;}
	.st3{font-family:'ArialMT';}
	.st4{font-size:14px;}
	.st5{font-size:12px;}
</style>
<g>
	<g transform="translate(6,6)">
		<line class="st0" x1="387.1" y1="3350" x2="493.4" y2="3350"/>
		<text transform="matrix(1 0 0 1 432.3641 3365)" class="st1 st2">0.4</text>
		<path class="st0" d="M695.6,282.7l25.6-21.1v42.2L695.6,282.7z"/>
		<path class="st0" d="M549.4,2476.4l207.5-21.1v42.2L549.4,2476.4z"/>
		<path class="st0" d="M533.8,156.1l231.5-21.1v42.2L533.8,156.1z"/>
		<path class="st0" d="M551,1168.6l127.7-21.1v42.2L551,1168.6z"/>
		<path class="st0" d="M502,324.9l169.5-21.1V346L502,324.9z"/>
		<path class="st0" d="M460.7,1843.6l242.9-21.1v42.2L460.7,1843.6z"/>
		<path class="st0" d="M274.6,2687.3l226-21.1v42.2L274.6,2687.3z"/>
		<path class="st0" d="M436.2,1337.4l229.8-21.1v42.2L436.2,1337.4z"/>
		<path class="st0" d="M563.1,71.8L686,50.7v42.2L563.1,71.8z"/>
		<path class="st0" d="M615.4,1379.5l139-21.1v42.2L615.4,1379.5z"/>
		<path class="st0" d="M580,409.3l173.7-21.1v42.2L580,409.3z"/>
		<path class="st0" d="M587.4,1548.3l158.5-21.1v42.2L587.4,1548.3z"/>
		<path class="st0" d="M533.1,451.5l167.2-21.1v42.2L533.1,451.5z"/>
		<path class="st0" d="M388.7,1295.2l230.7-21.1v42.2L388.7,1295.2z"/>
		<path class="st0" d="M542.2,198.3l216.4-21.1v42.2L542.2,198.3z"/>
		<path class="st0" d="M281.1,2645.1l292.1-21.1v42.2L281.1,2645.1z"/>
		<path class="st0" d="M560.4,831.1L695.6,810v42.2L560.4,831.1z"/>
		<path class="st0" d="M672.9,1421.7l9.3-21.1v42.2L672.9,1421.7z"/>
		<path class="st0" d="M643.9,578l20.8-21.1v42.2L643.9,578z"/>
		<path class="st0" d="M618,114l109-21.1v42.2L618,114z"/>
		<path class="st0" d="M618.4,240.5l182.1-21.1v42.2L618.4,240.5z"/>
		<path class="st0" d="M536.8,29.6L714.2,8.5v42.2L536.8,29.6z"/>
		<path class="st0" d="M674.4,2012.3H528.4v21.1"/>
		<path class="st0" d="M295.7,2229.9H145.4v-716.1"/>
		<path class="st0" d="M271.7,3256.8h-39.2v31.6"/>
		<path class="st0" d="M775.1,957.7H622.7V926"/>
		<path class="st0" d="M770.2,2307.6H645.1V2276"/>
		<path class="st0" d="M528.4,2033.4h-23.3V1986"/>
		<path class="st0" d="M531.2,261.6H401.5v-65.9"/>
		<path class="st0" d="M357,2254.9h-22.7v-303"/>
		<path class="st0" d="M388.7,1295.2h-32.9v-36.9"/>
		<path class="st0" d="M558.3,3067h-66.6v21.1"/>
		<path class="st0" d="M480.1,2051.9h-37.8v64.6"/>
		<path class="st0" d="M782.2,915.5h-43.4v-21.1"/>
		<path class="st0" d="M334.2,1951.9h-38.6v278.1"/>
		<path class="st0" d="M628.7,1801.4H481.9v-40.9"/>
		<path class="st0" d="M453.5,82.3h-37.1v47.5"/>
		<path class="st0" d="M780.7,873.3h-41.9v21.1"/>
		<path class="st0" d="M820.1,1674.8h-6.4v-31.6"/>
		<path class="st0" d="M618,114H453.5V82.3"/>
		<path class="st0" d="M367.9,909.6h-45.1v174.3"/>
		<path class="st0" d="M662.3,2054.5H528.4v-21.1"/>
		<path class="st0" d="M480.7,462h-29.2v36.9"/>
		<path class="st0" d="M771.3,2265.4h-70.9v-21.1"/>
		<path class="st0" d="M643.9,578h-96v31.6"/>
		<path class="st0" d="M618.4,240.5h-87.2v21.1"/>
		<path class="st0" d="M695.6,282.7H531.2v-21.1"/>
		<path class="st0" d="M442.4,2116.5H357v138.4"/>
		<path class="st0" d="M495.2,50.7h-41.7v31.6"/>
		<path class="st0" d="M576.3,1906.9h-41.4v31.6"/>
		<path class="st0" d="M367.4,3040.6h-80.5v-105.5"/>
		<path class="st0" d="M579.6,2898.2H388.3v-21.1"/>
		<path class="st0" d="M505.1,1986h-25v65.9"/>
		<path class="st0" d="M547.9,609.6h-51.7v58"/>
		<path class="st0" d="M389.2,2993.2h-21.8v47.5"/>
		<path class="st0" d="M722.3,2349.8H576v-36.9"/>
		<path class="st0" d="M565.6,1400.6h-54.3v42.2"/>
		<path class="st0" d="M274.6,2687.3h-30.9v-21.1"/>
		<path class="st0" d="M232.4,3288.5H8.7v-414.6"/>
		<path class="st0" d="M822.2,1611.6h-8.5v31.6"/>
		<path class="st0" d="M649.9,535.8H451.5v-36.9"/>
		<path class="st0" d="M64.8,2459.2H8.7v414.6"/>
		<path class="st0" d="M795,1680.1H519.3v39.5"/>
		<path class="st0" d="M491.7,3088.1H367.4v-47.5"/>
		<path class="st0" d="M536.8,29.6h-41.6v21.1"/>
		<path class="st0" d="M580.7,2602.9H87.9v-544.5"/>
		<path class="st0" d="M87.9,2058.4H64.8v400.8"/>
		<path class="st0" d="M519.3,1719.7h-37.5v40.9"/>
		<path class="st0" d="M770.3,2223.3h-69.9v21.1"/>
		<path class="st0" d="M812.4,1717H795v-36.9"/>
		<path class="st0" d="M416.4,129.8h-14.9v65.9"/>
		<path class="st0" d="M362.3,270.8h-73.8v114"/>
		<path class="st0" d="M542.2,198.3h-98.1v-21.1"/>
		<path class="st0" d="M128.7,2860H64.8v-400.8"/>
		<path class="st0" d="M738.8,894.4H622.7V926"/>
		<path class="st0" d="M243.7,2666.2h-115V2860"/>
		<path class="st0" d="M675.4,2181.1h-233v-64.6"/>
		<path class="st0" d="M460.7,1843.6h-42.9v-41.5"/>
		<path class="st0" d="M494.2,1105.3h-103v-65.9"/>
		<path class="st0" d="M375.9,1221.3h-20.1v36.9"/>
		<path class="st0" d="M695.9,2539.7h-253V2508"/>
		<path class="st0" d="M316.4,2829.7h-29.6v105.5"/>
		<path class="st0" d="M576,2312.9h-74.1v39.5"/>
		<path class="st0" d="M355.4,1648.8h-21.2v303"/>
		<path class="st0" d="M644,367.1H411.3V346"/>
		<path class="st0" d="M643.2,2856.1H388.3v21.1"/>
		<path class="st0" d="M727.9,2560.8h-32v-21.1"/>
		<path class="st0" d="M828.4,1590.5h-6.2v21.1"/>
		<path class="st0" d="M652.1,2096.7H504.7v21.1"/>
		<path class="st0" d="M501.8,2352.5h-35.8v40.9"/>
		<path class="st0" d="M474.7,1495.6H355.4v153.3"/>
		<path class="st0" d="M410.5,728.3h-23.1v51.4"/>
		<path class="st0" d="M401.5,195.7h-39.2v75.1"/>
		<path class="st0" d="M534.9,1938.5h-29.8v47.5"/>
		<path class="st0" d="M587.4,1548.3H474.7v-52.7"/>
		<path class="st0" d="M703.7,704.6h-0.4v21.1"/>
		<path class="st0" d="M699,662.4h-55.9v-21.1"/>
		<path class="st0" d="M549.4,2476.4H442.9v31.6"/>
		<path class="st0" d="M880.5,3320.1H232.4v-31.6"/>
		<path class="st0" d="M436.2,1337.4H303.7v-126.7"/>
		<path class="st0" d="M451.5,498.9h-163v-114"/>
		<path class="st0" d="M560.4,831.1h-173v-51.4"/>
		<path class="st0" d="M417.9,1802.1h-62.5v-153.3"/>
		<path class="st0" d="M411.3,346h-49v-75.1"/>
		<path class="st0" d="M828.2,1506.1h-32.2V1485"/>
		<path class="st0" d="M778.2,2434.2H466.1v-40.9"/>
		<path class="st0" d="M615.4,1379.5h-49.8v21.1"/>
		<path class="st0" d="M598.8,2729.5h-187v21.1"/>
		<path class="st0" d="M653.7,1253H375.9v-31.6"/>
		<path class="st0" d="M880.5,1885.8H576.3v21.1"/>
		<path class="st0" d="M737.4,2392H501.8v-39.5"/>
		<path class="st0" d="M551,1168.6H425.4v21.1"/>
		<path class="st0" d="M723.2,1042.1H573.7V1021"/>
		<path class="st0" d="M832.3,3235.7H271.7v21.1"/>
		<path class="st0" d="M0,2873.8h8.7"/>
		<path class="st0" d="M625,2940.4H414.5v21.1"/>
		<path class="st0" d="M288.5,384.9H240v412.9"/>
		<path class="st0" d="M533.8,156.1h-89.7v21.1"/>
		<path class="st0" d="M561.4,3109.2h-69.7v-21.1"/>
		<path class="st0" d="M322.7,1083.9h-19.1v126.7"/>
		<path class="st0" d="M444.1,177.2h-27.7v-47.5"/>
		<path class="st0" d="M502,324.9h-90.7V346"/>
		<path class="st0" d="M355.8,1258.3h-33.1v-174.3"/>
		<path class="st0" d="M557.5,2982.6h-143v-21.1"/>
		<path class="st0" d="M503.2,973.5H391.1v65.9"/>
		<path class="st0" d="M145.4,1513.8H87.9v544.5"/>
		<path class="st0" d="M622.7,926H503.2v47.5"/>
		<path class="st0" d="M703.3,725.7H496.2v-58"/>
		<path class="st0" d="M666.9,1970.1h-132v-31.6"/>
		<path class="st0" d="M240,797.8h-94.6v716.1"/>
		<path class="st0" d="M657.7,1126.4H494.2v-21.1"/>
		<path class="st0" d="M504.7,2117.8h-24.5v-65.9"/>
		<path class="st0" d="M645.1,2276H576v36.9"/>
		<path class="st0" d="M155.6,3053.8h-26.9V2860"/>
		<path class="st0" d="M496.2,667.7h-85.7v60.6"/>
		<path class="st0" d="M286.9,2935.2H155.6v118.6"/>
		<path class="st0" d="M281.1,2645.1h-37.4v21.1"/>
		<path class="st0" d="M348.7,2782.2h-32.3v47.5"/>
		<path class="st0" d="M442.9,2508H295.7v-278.1"/>
		<path class="st0" d="M700.4,2244.4h-55.2v31.6"/>
		<path class="st0" d="M303.7,1210.6H240V797.8"/>
		<path class="st0" d="M612,3277.9H271.7v-21.1"/>
		<path class="st0" d="M710.3,746.8h-7v-21.1"/>
		<path class="st0" d="M612.3,2813.9H348.7v-31.6"/>
		<path class="st0" d="M563.1,71.8h-67.9V50.7"/>
		<path class="st0" d="M481.9,1760.5h-64v41.5"/>
		<path class="st0" d="M835.6,1632.7h-13.4v-21.1"/>
		<path class="st0" d="M524.4,3024.8H389.2v-31.6"/>
		<path class="st0" d="M499.4,3193.5h-89v-21.1"/>
		<path class="st0" d="M411.8,2750.6h-63.1v31.6"/>
		<path class="st0" d="M533.1,451.5h-18.8v-21.1"/>
		<path class="st0" d="M657.1,2138.9H504.7v-21.1"/>
		<path class="st0" d="M672.9,1421.7H565.6v-21.1"/>
		<path class="st0" d="M683.8,1084.2H494.2v21.1"/>
		<path class="st0" d="M573.7,1021h-70.5v-47.5"/>
		<path class="st0" d="M391.1,1039.4h-23.3V909.6"/>
		<path class="st0" d="M514.3,430.4h-33.6V462"/>
		<path class="st0" d="M811.2,1463.9h-15.3v21.1"/>
		<path class="st0" d="M774.6,999.9H573.7v21.1"/>
		<path class="st0" d="M388.3,2877.1h-71.9v-47.5"/>
		<path class="st0" d="M425.4,1189.7h-49.5v31.6"/>
		<path class="st0" d="M580,409.3h-65.6v21.1"/>
		<path class="st0" d="M624,1210.8H425.4v-21.1"/>
		<path class="st0" d="M643.2,641.3h-95.3v-31.6"/>
		<path class="st0" d="M525.7,3151.4H410.4v21.1"/>
		<path class="st0" d="M387.4,779.7h-19.5v129.9"/>
		<path class="st0" d="M565.9,2771.7H411.8v-21.1"/>
		<path class="st0" d="M626.3,493.6H480.7V462"/>
		<path class="st0" d="M682,620.2h-38.8v21.1"/>
		<path class="st0" d="M671.1,1928h-94.8v-21.1"/>
		<path class="st0" d="M813.7,1643.2H795v36.9"/>
		<path class="st0" d="M511.3,1442.8h-36.6v52.7"/>
		<path class="st0" d="M726.8,2518.6h-31v21.1"/>
		<path class="st0" d="M414.5,2961.5h-25.3v31.6"/>
		<path class="st0" d="M466.1,2393.3H357v-138.4"/>
		<path class="st0" d="M795.9,1485H511.3v-42.2"/>
		<path class="st0" d="M410.4,3172.4H155.6v-118.6"/>
		<path class="st0" d="M637.4,788.9H410.5v-60.6"/>
		<path class="st0" d="M670.9,1759.2H519.3v-39.5"/>
		<text transform="matrix(1 0 0 1 684.4484 2016.8334)" class="st3 st4">Potamipivirus A QBA82298.1  </text>
	</g>
	<g transform="matrix(1,0,0,1,794.2051,2431.6935)">
		<text transform="matrix(1 0 0 1 0 13)" class="st3 st4">Western African lungfish picornavirus AVM87419 </text>
	</g>
	<g transform="matrix(1,0,0,1,770.3942,1377.0431)">
		<text transform="matrix(1 0 0 1 6.110938e-05 13)" class="st3 st4">Grosupivirus</text>
	</g>
	<g transform="matrix(1,0,0,1,791.1117,955.1829)">
		<text transform="matrix(1 0 0 1 0 12.9999)" class="st3 st4">Chaetodon baronessa picornavirus </text>
	</g>
	<g transform="matrix(1,0,0,1,786.2466,2305.1355)">
		<text transform="matrix(1 0 0 1 0 13)" class="st3 st4">Fathead minnow picornavirus AGW43024.1  </text>
	</g>
	<g transform="matrix(1,0,0,1,614.8078,2726.9957)">
		<text transform="matrix(1 0 0 1 0 13)" class="st3 st4">Beihai wrasse picornavirus AVM87595.1  </text>
	</g>
	<g transform="matrix(1,0,0,1,669.6775,1250.485)">
		<text transform="matrix(1 0 0 1 0 13)" class="st3 st4">Hainan oriental leaf toed gecko picornavirus AVM87415.1  </text>
	</g>
	<g transform="matrix(1,0,0,1,896.5387,1883.2753)">
		<text transform="matrix(1 0 0 1 0 13)" class="st3 st4">Pomacentrus moluccensis picornavirus</text>
	</g>
	<g transform="matrix(1,0,0,1,753.3677,2389.5075)">
		<text transform="matrix(1 0 0 1 0 13)" class="st3 st4">Guangdong spotted longbarbel catfish picornavirus AVM87450.1  </text>
	</g>
	<g transform="matrix(1,0,0,1,694.7426,1166.113)">
		<text transform="matrix(1 0 0 1 0 13)" class="st3 st4">Dicipivirus</text>
	</g>
	<g transform="matrix(1,0,0,1,739.2248,1039.5549)">
		<text transform="matrix(1 0 0 1 6.151562e-05 13)" class="st3 st4">Callogobius maculipinnis picornavirus</text>
	</g>
	<g transform="matrix(1,0,0,1,848.2795,3233.2279)">
		<text transform="matrix(1 0 0 1 6.101562e-05 13)" class="st3 st4">Exyrias picornavirus</text>
	</g>
	<g transform="matrix(1,0,0,1,641.0348,2937.9258)">
		<text transform="matrix(1 0 0 1 0 13)" class="st3 st4">Apogon exostima picornavirus  </text>
	</g>
	<g transform="matrix(1,0,0,1,635.4551,1292.671)">
		<text transform="matrix(1 0 0 1 0 13)" class="st3 st4">Tropivirus</text>
	</g>
	<g transform="matrix(1,0,0,1,574.2839,3064.4838)">
		<text transform="matrix(1 0 0 1 0 13)" class="st3 st4">Wenling banjofish picornavirus 1 AVM87440.1  </text>
	</g>
	<g transform="matrix(1,0,0,1,798.2357,912.9969)">
		<text transform="matrix(1 0 0 1 0 12.9999)" class="st3 st4">Neopomacentrus bankieri picornavirus  </text>
	</g>
	<g transform="matrix(1,0,0,1,781.2988,153.6485)">
		<text transform="matrix(1 0 0 1 0 12.9999)" class="st3 st4">Aphthovirus</text>
	</g>
	<g transform="matrix(1,0,0,1,644.709,1798.9033)">
		<text transform="matrix(1 0 0 1 0 13)" class="st3 st4">Crohivirus B AQP31133.1  </text>
	</g>
	<g transform="matrix(1,0,0,1,796.7016,870.8108)">
		<text transform="matrix(1 0 0 1 6.115625e-05 13)" class="st3 st4">Chromis viridis picornavirus   </text>
	</g>
	<g transform="matrix(1,0,0,1,577.3555,3106.6699)">
		<text transform="matrix(1 0 0 1 0 13)" class="st3 st4">Wenling banjofish picornavirus 2 AVM87594.1  </text>
	</g>
	<g transform="matrix(1,0,0,1,836.135,1672.3452)">
		<text transform="matrix(1 0 0 1 0 13)" class="st3 st4">pasivirus A2 AFV31450.1  </text>
	</g>
	<g transform="matrix(1,0,0,1,742.988,111.4625)">
		<text transform="matrix(1 0 0 1 6.110938e-05 12.9999)" class="st3 st4">Cosavirus</text>
	</g>
	<g transform="matrix(1,0,0,1,687.5025,322.3926)">
		<text transform="matrix(1 0 0 1 0 13)" class="st3 st4">Mosavirus</text>
	</g>
	<g transform="matrix(1,0,0,1,678.3328,2052.0194)">
		<text transform="matrix(1 0 0 1 0 13)" class="st3 st4">Wenling pleuronectiformes picornavirus AVM87596.1</text>
	</g>
	<g transform="matrix(1,0,0,1,787.2818,2262.9495)">
		<text transform="matrix(1 0 0 1 -6.071875e-05 13)" class="st3 st4">Carp picornavirus 1 AHC98709.1  </text>
	</g>
	<g transform="matrix(1,0,0,1,680.7459,575.5087)">
		<text transform="matrix(1 0 0 1 0 13.0001)" class="st3 st4">Sicinivirus</text>
	</g>
	<g transform="matrix(1,0,0,1,816.5261,238.0205)">
		<text transform="matrix(1 0 0 1 0 13)" class="st3 st4">Hunnivirus</text>
	</g>
	<g transform="matrix(1,0,0,1,573.476,2980.1118)">
		<text transform="matrix(1 0 0 1 0 13)" class="st3 st4">Plesiops coeruleolineatus picornavirus </text>
	</g>
	<g transform="matrix(1,0,0,1,737.2155,280.2066)">
		<text transform="matrix(1 0 0 1 0 12.9999)" class="st3 st4">Teschovirus</text>
	</g>
	<g transform="matrix(1,0,0,1,595.5644,2895.7398)">
		<text transform="matrix(1 0 0 1 0 13)" class="st3 st4">Wuhan sharpbelly picornavirus 3 AVM87405.1  </text>
	</g>
	<g transform="matrix(1,0,0,1,682.9394,1967.6473)">
		<text transform="matrix(1 0 0 1 0 13)" class="st3 st4">Eel picornavirus 1 AGV08598.1  </text>
	</g>
	<g transform="matrix(1,0,0,1,673.7417,1123.9269)">
		<text transform="matrix(1 0 0 1 0 13)" class="st3 st4">Dusky wrasse picornavirus   </text>
	</g>
	<g transform="matrix(1,0,0,1,738.2923,2347.3215)">
		<text transform="matrix(1 0 0 1 -6.067187e-05 13)" class="st3 st4">limnipivirus A1 AFP96991.1  </text>
	</g>
	<g transform="matrix(1,0,0,1,516.6393,2684.8097)">
		<text transform="matrix(1 0 0 1 0 13)" class="st3 st4">Tremovirus</text>
	</g>
	<g transform="matrix(1,0,0,1,589.1755,2642.6236)">
		<text transform="matrix(1 0 0 1 0 13)" class="st3 st4">Hepatovirus</text>
	</g>
	<g transform="matrix(1,0,0,1,665.9175,533.3227)">
		<text transform="matrix(1 0 0 1 0 13.0001)" class="st3 st4">anativirus B1 ALR74732.1  </text>
	</g>
	<g transform="matrix(1,0,0,1,628.0212,3275.4139)">
		<text transform="matrix(1 0 0 1 0 13)" class="st3 st4">Ampivirus A1 YP 009143521.1  </text>
	</g>
	<g transform="matrix(1,0,0,1,726.2752,744.2528)">
		<text transform="matrix(1 0 0 1 0 13)" class="st3 st4">Salivirus NG J1 ACS32214.2  </text>
	</g>
	<g transform="matrix(1,0,0,1,730.1891,27.0904)">
		<text transform="matrix(1 0 0 1 0 12.9999)" class="st3 st4">Cardiovirus</text>
	</g>
	<g transform="matrix(1,0,0,1,596.7066,2600.4376)">
		<text transform="matrix(1 0 0 1 0 13)" class="st3 st4">Falcovirus A1 YP 009133208.1  </text>
	</g>
	<g transform="matrix(1,0,0,1,628.333,2811.3677)">
		<text transform="matrix(1 0 0 1 0 13)" class="st3 st4">Wenling crossorhombus picornavirus AVM87451.1  </text>
	</g>
	<g transform="matrix(1,0,0,1,786.2893,2220.7635)">
		<text transform="matrix(1 0 0 1 0 13)" class="st3 st4">Wenling bighead beaked sandfish picornavirus AVM87449.1  </text>
	</g>
	<g transform="matrix(1,0,0,1,701.9504,69.2765)">
		<text transform="matrix(1 0 0 1 0 12.9999)" class="st3 st4">Mischivirus</text>
	</g>
	<g transform="matrix(1,0,0,1,851.6232,1630.1592)">
		<text transform="matrix(1 0 0 1 6.101562e-05 13)" class="st3 st4">pasivirus A3 AIU94297.1  </text>
	</g>
	<g transform="matrix(1,0,0,1,540.3934,3022.2978)">
		<text transform="matrix(1 0 0 1 0 13)" class="st3 st4">Wenling chelidoperca picornavirus AVM87406.1  </text>
	</g>
	<g transform="matrix(1,0,0,1,828.4161,1714.5312)">
		<text transform="matrix(1 0 0 1 -6.137500e-05 13)" class="st3 st4">Pasivirus A QRD99352.1  </text>
	</g>
	<g transform="matrix(1,0,0,1,515.3936,3191.0419)">
		<text transform="matrix(1 0 0 1 0 13)" class="st3 st4">Pomacentrus nagasakiensis picornavirus   </text>
	</g>
	<g transform="matrix(1,0,0,1,716.2852,448.9506)">
		<text transform="matrix(1 0 0 1 0 13)" class="st3 st4">Sapelovirus</text>
	</g>
	<g transform="matrix(1,0,0,1,774.5906,195.8345)">
		<text transform="matrix(1 0 0 1 0 13)" class="st3 st4">Bopivirus</text>
	</g>
	<g transform="matrix(1,0,0,1,673.0568,2136.3914)">
		<text transform="matrix(1 0 0 1 0 13)" class="st3 st4">Beihai pentapodus picornavirus AVM87593.1  </text>
	</g>
	<g transform="matrix(1,0,0,1,698.175,1419.2291)">
		<text transform="matrix(1 0 0 1 0 13)" class="st3 st4">Avihepatovirus</text>
	</g>
	<g transform="matrix(1,0,0,1,699.8494,1081.7409)">
		<text transform="matrix(1 0 0 1 0 13)" class="st3 st4">Wenling triplecross lizardfish picornavirus AVM87408.1  </text>
	</g>
	<g transform="matrix(1,0,0,1,691.3786,2178.5774)">
		<text transform="matrix(1 0 0 1 0 13)" class="st3 st4">Asterropteryx spinosa picornavirus   </text>
	</g>
	<g transform="matrix(1,0,0,1,827.2048,1461.4151)">
		<text transform="matrix(1 0 0 1 6.098437e-05 13)" class="st3 st4">Chicken orivirus 1 YP 009100112.1  </text>
	</g>
	<g transform="matrix(1,0,0,1,719.6543,1841.0893)">
		<text transform="matrix(1 0 0 1 0 13)" class="st3 st4">Parechovirus</text>
	</g>
	<g transform="matrix(1,0,0,1,790.5625,997.3689)">
		<text transform="matrix(1 0 0 1 0 13)" class="st3 st4">Zebrafish picornavirus 1 AXQ03965.1  </text>
	</g>
	<g transform="matrix(1,0,0,1,660.0229,364.5786)">
		<text transform="matrix(1 0 0 1 0 13)" class="st3 st4">torchivirus A1 YP 009111338.1  </text>
	</g>
	<g transform="matrix(1,0,0,1,659.1528,2853.5537)">
		<text transform="matrix(1 0 0 1 0 13)" class="st3 st4">Wuhan sharpbelly picornavirus 2 AVM87404.1  </text>
	</g>
	<g transform="matrix(1,0,0,1,769.709,406.7646)">
		<text transform="matrix(1 0 0 1 0 13.0001)" class="st3 st4">Enterovirus</text>
	</g>
	<g transform="matrix(1,0,0,1,639.9508,1208.299)">
		<text transform="matrix(1 0 0 1 0 13)" class="st3 st4">Guangdong chinese water snake picornavirus AVM87444.1  </text>
	</g>
	<g transform="matrix(1,0,0,1,743.8799,2558.2516)">
		<text transform="matrix(1 0 0 1 0 13)" class="st3 st4">Seal picornavirus type 1 YP 001497152.1  </text>
	</g>
	<g transform="matrix(1,0,0,1,541.7248,3148.8559)">
		<text transform="matrix(1 0 0 1 0 13)" class="st3 st4">Bleniella picornavirus</text>
	</g>
	<g transform="matrix(1,0,0,1,844.397,1587.9732)">
		<text transform="matrix(1 0 0 1 0 13)" class="st3 st4">Pasivirus A1 AFN70966.1  </text>
	</g>
	<g transform="matrix(1,0,0,1,581.906,2769.1817)">
		<text transform="matrix(1 0 0 1 0 13)" class="st3 st4">Wenling jack mackerels picornavirus AVM87407.1  </text>
	</g>
	<g transform="matrix(1,0,0,1,642.3332,491.1367)">
		<text transform="matrix(1 0 0 1 0 13)" class="st3 st4">anativirus A1 AAT67220.1  </text>
	</g>
	<g transform="matrix(1,0,0,1,697.9951,617.6947)">
		<text transform="matrix(1 0 0 1 0 13)" class="st3 st4">Passerivirus sp. YP 009448192.1  </text>
	</g>
	<g transform="matrix(1,0,0,1,687.0913,1925.4613)">
		<text transform="matrix(1 0 0 1 0 13)" class="st3 st4">Glithead seasbream picornavirus MZ712015 </text>
	</g>
	<g transform="matrix(1,0,0,1,668.0635,2094.2054)">
		<text transform="matrix(1 0 0 1 0 13)" class="st3 st4">Asterropteryx semipunctatus picornavirus </text>
	</g>
	<g transform="matrix(1,0,0,1,742.8355,2516.0656)">
		<text transform="matrix(1 0 0 1 -6.078125e-05 13)" class="st3 st4">aquamavirus A2 AZS54664.1  </text>
	</g>
	<g transform="matrix(1,0,0,1,761.8464,1545.7871)">
		<text transform="matrix(1 0 0 1 6.054687e-05 13)" class="st3 st4">Avisivirus</text>
	</g>
	<g transform="matrix(1,0,0,1,719.6712,702.0668)">
		<text transform="matrix(1 0 0 1 0 13)" class="st3 st4">Salivirus A ACS91540.1  </text>
	</g>
	<g transform="matrix(1,0,0,1,715.049,659.8807)">
		<text transform="matrix(1 0 0 1 0 12.9999)" class="st3 st4">Passerivirus A1 YP 003853285.1  </text>
	</g>
	<g transform="matrix(1,0,0,1,772.9597,2473.8796)">
		<text transform="matrix(1 0 0 1 0 13)" class="st3 st4">Kunsagivirus</text>
	</g>
	<g transform="matrix(1,0,0,1,653.3877,786.4388)">
		<text transform="matrix(1 0 0 1 0 12.9999)" class="st3 st4">livupivirus A1 YP 009329856.1  </text>
	</g>
	<g transform="matrix(1,0,0,1,896.5387,3317.6)">
		<text transform="matrix(1 0 0 1 0 13)" class="st3 st4">Enneapterygius tutuilae picornavirus </text>
	</g>
	<g transform="matrix(1,0,0,1,682.0555,1334.857)">
		<text transform="matrix(1 0 0 1 0 13)" class="st3 st4">Megrivirus</text>
	</g>
	<g transform="matrix(1,0,0,1,686.8969,1756.7172)">
		<text transform="matrix(1 0 0 1 0 13)" class="st3 st4">Crohivirus A BAP81884.1  </text>
	</g>
	<g transform="matrix(1,0,0,1,711.6088,828.6248)">
		<text transform="matrix(1 0 0 1 0 12.9999)" class="st3 st4">Rafivirus</text>
	</g>
	<g transform="matrix(1,0,0,1,844.1636,1503.6011)">
		<text transform="matrix(1 0 0 1 0 13)" class="st3 st4">Orivirus Pf CHK1 OrV A2 ALR74729.1  </text>
	</g>
	<g transform="matrix(1,0,0,1,716.3531,2242.8565)">
		<text transform="matrix(1 0 0 1 0 12)" class="st1 st5">100</text>
	</g>
	<g transform="matrix(1,0,0,1,311.6658,2228.4374)">
		<text transform="matrix(1 0 0 1 -3.051562e-05 12)" class="st1 st5">100</text>
	</g>
	<g transform="matrix(1,0,0,1,631.3887,1378.0431)">
		<text transform="matrix(1 0 0 1 0 12)" class="st1 st5">99</text>
	</g>
	<g transform="matrix(1,0,0,1,287.6752,3255.3209)">
		<text transform="matrix(1 0 0 1 -3.010156e-05 12)" class="st1 st5">96</text>
	</g>
	<g transform="matrix(1,0,0,1,80.8011,2457.7003)">
		<text transform="matrix(1 0 0 1 -1.557422e-05 12)" class="st1 st5">100</text>
	</g>
	<g transform="matrix(1,0,0,1,319.6587,1209.1342)">
		<text transform="matrix(1 0 0 1 0 12)" class="st1 st5">100</text>
	</g>
	<g transform="matrix(1,0,0,1,811.0127,1678.6185)">
		<text transform="matrix(1 0 0 1 0 12)" class="st1 st5">100</text>
	</g>
	<g transform="matrix(1,0,0,1,507.6525,3086.5768)">
		<text transform="matrix(1 0 0 1 -3.017969e-05 12)" class="st1 st5">100</text>
	</g>
	<g transform="matrix(1,0,0,1,552.8408,28.0904)">
		<text transform="matrix(1 0 0 1 0 11.9999)" class="st1 st5">100</text>
	</g>
	<g transform="matrix(1,0,0,1,103.8852,2056.8919)">
		<text transform="matrix(1 0 0 1 -8.128906e-06 12)" class="st1 st5">84</text>
	</g>
	<g transform="matrix(1,0,0,1,535.3166,1718.1678)">
		<text transform="matrix(1 0 0 1 0 12)" class="st1 st5">100</text>
	</g>
	<g transform="matrix(1,0,0,1,567.041,1167.113)">
		<text transform="matrix(1 0 0 1 0 12)" class="st1 st5">100</text>
	</g>
	<g transform="matrix(1,0,0,1,579.0597,70.2765)">
		<text transform="matrix(1 0 0 1 0 11.9999)" class="st1 st5">100</text>
	</g>
	<g transform="matrix(1,0,0,1,544.3866,2031.9264)">
		<text transform="matrix(1 0 0 1 0 12)" class="st1 st5">99</text>
	</g>
	<g transform="matrix(1,0,0,1,497.866,1759.0356)">
		<text transform="matrix(1 0 0 1 -3.020313e-05 12)" class="st1 st5">100</text>
	</g>
	<g transform="matrix(1,0,0,1,432.3807,128.2822)">
		<text transform="matrix(1 0 0 1 3.030469e-05 12)" class="st1 st5">61</text>
	</g>
	<g transform="matrix(1,0,0,1,427.7583,2749.0887)">
		<text transform="matrix(1 0 0 1 0 12)" class="st1 st5">100</text>
	</g>
	<g transform="matrix(1,0,0,1,378.2868,269.3417)">
		<text transform="matrix(1 0 0 1 0 12)" class="st1 st5">100</text>
	</g>
	<g transform="matrix(1,0,0,1,547.2225,260.1136)">
		<text transform="matrix(1 0 0 1 0 11.9999)" class="st1 st5">100</text>
	</g>
	<g transform="matrix(1,0,0,1,372.9592,2253.403)">
		<text transform="matrix(1 0 0 1 3.051562e-05 12)" class="st1 st5">76</text>
	</g>
	<g transform="matrix(1,0,0,1,404.7211,1293.671)">
		<text transform="matrix(1 0 0 1 -3.066406e-05 12)" class="st1 st5">73</text>
	</g>
	<g transform="matrix(1,0,0,1,549.108,449.9506)">
		<text transform="matrix(1 0 0 1 0 12)" class="st1 st5">79</text>
	</g>
	<g transform="matrix(1,0,0,1,558.2225,196.8345)">
		<text transform="matrix(1 0 0 1 0 12)" class="st1 st5">100</text>
	</g>
	<g transform="matrix(1,0,0,1,144.6881,2858.5087)">
		<text transform="matrix(1 0 0 1 1.535156e-05 12)" class="st1 st5">96</text>
	</g>
	<g transform="matrix(1,0,0,1,496.1217,2050.3827)">
		<text transform="matrix(1 0 0 1 0 12)" class="st1 st5">75</text>
	</g>
	<g transform="matrix(1,0,0,1,688.8963,1420.2291)">
		<text transform="matrix(1 0 0 1 0 12)" class="st1 st5">100</text>
	</g>
	<g transform="matrix(1,0,0,1,350.2163,1950.3557)">
		<text transform="matrix(1 0 0 1 0 12)" class="st1 st5">80</text>
	</g>
	<g transform="matrix(1,0,0,1,754.8064,892.9038)">
		<text transform="matrix(1 0 0 1 0 12)" class="st1 st5">100</text>
	</g>
	<g transform="matrix(1,0,0,1,304.4635,383.3758)">
		<text transform="matrix(1 0 0 1 0 11.9999)" class="st1 st5">97</text>
	</g>
	<g transform="matrix(1,0,0,1,259.6709,2664.7167)">
		<text transform="matrix(1 0 0 1 0 12)" class="st1 st5">100</text>
	</g>
	<g transform="matrix(1,0,0,1,589.6668,1019.4619)">
		<text transform="matrix(1 0 0 1 0 12)" class="st1 st5">98</text>
	</g>
	<g transform="matrix(1,0,0,1,407.1493,1037.9183)">
		<text transform="matrix(1 0 0 1 0 12)" class="st1 st5">77</text>
	</g>
	<g transform="matrix(1,0,0,1,530.3305,428.8576)">
		<text transform="matrix(1 0 0 1 0 12.0001)" class="st1 st5">81</text>
	</g>
	<g transform="matrix(1,0,0,1,549.7719,154.6485)">
		<text transform="matrix(1 0 0 1 0 11.9999)" class="st1 st5">100</text>
	</g>
	<g transform="matrix(1,0,0,1,469.4583,80.823)">
		<text transform="matrix(1 0 0 1 0 12)" class="st1 st5">100</text>
	</g>
	<g transform="matrix(1,0,0,1,476.7499,1842.0893)">
		<text transform="matrix(1 0 0 1 -3.007031e-05 12)" class="st1 st5">100</text>
	</g>
	<g transform="matrix(1,0,0,1,510.1864,1103.8339)">
		<text transform="matrix(1 0 0 1 0 12)" class="st1 st5">100</text>
	</g>
	<g transform="matrix(1,0,0,1,391.9146,1219.8455)">
		<text transform="matrix(1 0 0 1 0 12)" class="st1 st5">52</text>
	</g>
	<g transform="matrix(1,0,0,1,338.7182,1082.4114)">
		<text transform="matrix(1 0 0 1 0 12)" class="st1 st5">39</text>
	</g>
	<g transform="matrix(1,0,0,1,404.2636,2875.6468)">
		<text transform="matrix(1 0 0 1 0 12)" class="st1 st5">100</text>
	</g>
	<g transform="matrix(1,0,0,1,711.862,2538.1586)">
		<text transform="matrix(1 0 0 1 0 12)" class="st1 st5">100</text>
	</g>
	<g transform="matrix(1,0,0,1,633.9843,112.4625)">
		<text transform="matrix(1 0 0 1 0 11.9999)" class="st1 st5">100</text>
	</g>
	<g transform="matrix(1,0,0,1,332.4108,2828.1875)">
		<text transform="matrix(1 0 0 1 -3.039844e-05 12)" class="st1 st5">54</text>
	</g>
	<g transform="matrix(1,0,0,1,460.0984,175.7415)">
		<text transform="matrix(1 0 0 1 0 12)" class="st1 st5">62</text>
	</g>
	<g transform="matrix(1,0,0,1,441.3807,1188.206)">
		<text transform="matrix(1 0 0 1 3.030469e-05 12)" class="st1 st5">100</text>
	</g>
	<g transform="matrix(1,0,0,1,383.8594,908.0644)">
		<text transform="matrix(1 0 0 1 -3.100000e-05 12.0001)" class="st1 st5">93</text>
	</g>
	<g transform="matrix(1,0,0,1,371.432,1647.3085)">
		<text transform="matrix(1 0 0 1 0 12)" class="st1 st5">77</text>
	</g>
	<g transform="matrix(1,0,0,1,591.953,2311.4087)">
		<text transform="matrix(1 0 0 1 0 12)" class="st1 st5">100</text>
	</g>
	<g transform="matrix(1,0,0,1,517.9898,323.3926)">
		<text transform="matrix(1 0 0 1 0 12)" class="st1 st5">100</text>
	</g>
	<g transform="matrix(1,0,0,1,371.8375,1256.7583)">
		<text transform="matrix(1 0 0 1 3.041406e-05 12)" class="st1 st5">90</text>
	</g>
	<g transform="matrix(1,0,0,1,496.7033,460.4971)">
		<text transform="matrix(1 0 0 1 0 12)" class="st1 st5">96</text>
	</g>
	<g transform="matrix(1,0,0,1,595.9709,407.7646)">
		<text transform="matrix(1 0 0 1 0 12.0001)" class="st1 st5">100</text>
	</g>
	<g transform="matrix(1,0,0,1,659.1836,639.7877)">
		<text transform="matrix(1 0 0 1 0 12)" class="st1 st5">100</text>
	</g>
	<g transform="matrix(1,0,0,1,659.9072,576.5087)">
		<text transform="matrix(1 0 0 1 0 12.0001)" class="st1 st5">100</text>
	</g>
	<g transform="matrix(1,0,0,1,634.3887,239.0205)">
		<text transform="matrix(1 0 0 1 0 12)" class="st1 st5">100</text>
	</g>
	<g transform="matrix(1,0,0,1,711.6177,281.2066)">
		<text transform="matrix(1 0 0 1 0 11.9999)" class="st1 st5">100</text>
	</g>
	<g transform="matrix(1,0,0,1,403.3595,778.2106)">
		<text transform="matrix(1 0 0 1 0 12)" class="st1 st5">90</text>
	</g>
	<g transform="matrix(1,0,0,1,519.2148,972.0026)">
		<text transform="matrix(1 0 0 1 0 12.0001)" class="st1 st5">100</text>
	</g>
	<g transform="matrix(1,0,0,1,458.3506,2114.9801)">
		<text transform="matrix(1 0 0 1 0 12)" class="st1 st5">100</text>
	</g>
	<g transform="matrix(1,0,0,1,511.1909,49.1835)">
		<text transform="matrix(1 0 0 1 3.096875e-05 12.0001)" class="st1 st5">100</text>
	</g>
	<g transform="matrix(1,0,0,1,517.8489,2350.9581)">
		<text transform="matrix(1 0 0 1 0 12)" class="st1 st5">96</text>
	</g>
	<g transform="matrix(1,0,0,1,161.4486,1512.3462)">
		<text transform="matrix(1 0 0 1 1.539844e-05 12)" class="st1 st5">99</text>
	</g>
	<g transform="matrix(1,0,0,1,490.695,1494.0546)">
		<text transform="matrix(1 0 0 1 0 12)" class="st1 st5">100</text>
	</g>
	<g transform="matrix(1,0,0,1,592.3236,1905.3683)">
		<text transform="matrix(1 0 0 1 0 12)" class="st1 st5">75</text>
	</g>
	<g transform="matrix(1,0,0,1,426.4902,726.7964)">
		<text transform="matrix(1 0 0 1 3.037500e-05 12)" class="st1 st5">85</text>
	</g>
	<g transform="matrix(1,0,0,1,829.713,1641.7057)">
		<text transform="matrix(1 0 0 1 0 12)" class="st1 st5">98</text>
	</g>
	<g transform="matrix(1,0,0,1,638.743,924.5434)">
		<text transform="matrix(1 0 0 1 0 12.0001)" class="st1 st5">100</text>
	</g>
	<g transform="matrix(1,0,0,1,383.3508,3039.1176)">
		<text transform="matrix(1 0 0 1 3.007812e-05 12)" class="st1 st5">100</text>
	</g>
	<g transform="matrix(1,0,0,1,719.32,724.1598)">
		<text transform="matrix(1 0 0 1 0 12)" class="st1 st5">100</text>
	</g>
	<g transform="matrix(1,0,0,1,527.2784,1441.3221)">
		<text transform="matrix(1 0 0 1 0 12)" class="st1 st5">91</text>
	</g>
	<g transform="matrix(1,0,0,1,417.4872,194.1979)">
		<text transform="matrix(1 0 0 1 -3.038281e-05 12)" class="st1 st5">97</text>
	</g>
	<g transform="matrix(1,0,0,1,550.9301,1937.0078)">
		<text transform="matrix(1 0 0 1 0 12)" class="st1 st5">72</text>
	</g>
	<g transform="matrix(1,0,0,1,603.3716,1546.7871)">
		<text transform="matrix(1 0 0 1 0 12)" class="st1 st5">100</text>
	</g>
	<g transform="matrix(1,0,0,1,430.5148,2960.0188)">
		<text transform="matrix(1 0 0 1 -3.049219e-05 12)" class="st1 st5">53</text>
	</g>
	<g transform="matrix(1,0,0,1,256.006,796.255)">
		<text transform="matrix(1 0 0 1 -3.055469e-05 12)" class="st1 st5">100</text>
	</g>
	<g transform="matrix(1,0,0,1,521.1168,1984.4671)">
		<text transform="matrix(1 0 0 1 0 12)" class="st1 st5">72</text>
	</g>
	<g transform="matrix(1,0,0,1,563.9098,608.1482)">
		<text transform="matrix(1 0 0 1 0 12)" class="st1 st5">100</text>
	</g>
	<g transform="matrix(1,0,0,1,520.6522,2116.2984)">
		<text transform="matrix(1 0 0 1 0 12)" class="st1 st5">76</text>
	</g>
	<g transform="matrix(1,0,0,1,405.1877,2991.6583)">
		<text transform="matrix(1 0 0 1 3.014063e-05 12)" class="st1 st5">91</text>
	</g>
	<g transform="matrix(1,0,0,1,482.0909,2391.8258)">
		<text transform="matrix(1 0 0 1 3.038281e-05 12)" class="st1 st5">100</text>
	</g>
	<g transform="matrix(1,0,0,1,661.1284,2274.496)">
		<text transform="matrix(1 0 0 1 0 12)" class="st1 st5">100</text>
	</g>
	<g transform="matrix(1,0,0,1,811.9281,1483.5081)">
		<text transform="matrix(1 0 0 1 0 12)" class="st1 st5">100</text>
	</g>
	<g transform="matrix(1,0,0,1,171.5641,3052.3007)">
		<text transform="matrix(1 0 0 1 -1.508594e-05 12)" class="st1 st5">81</text>
	</g>
	<g transform="matrix(1,0,0,1,426.3917,3170.9489)">
		<text transform="matrix(1 0 0 1 3.063281e-05 12)" class="st1 st5">100</text>
	</g>
	<g transform="matrix(1,0,0,1,512.1711,666.154)">
		<text transform="matrix(1 0 0 1 0 12.0001)" class="st1 st5">100</text>
	</g>
	<g transform="matrix(1,0,0,1,565.4198,2474.8796)">
		<text transform="matrix(1 0 0 1 0 12)" class="st1 st5">100</text>
	</g>
	<g transform="matrix(1,0,0,1,581.6136,1399.1361)">
		<text transform="matrix(1 0 0 1 0 12)" class="st1 st5">99</text>
	</g>
	<g transform="matrix(1,0,0,1,290.5978,2685.8097)">
		<text transform="matrix(1 0 0 1 -3.067969e-05 12)" class="st1 st5">99</text>
	</g>
	<g transform="matrix(1,0,0,1,452.2187,1335.857)">
		<text transform="matrix(1 0 0 1 0 12)" class="st1 st5">100</text>
	</g>
	<g transform="matrix(1,0,0,1,302.851,2933.6525)">
		<text transform="matrix(1 0 0 1 0 12)" class="st1 st5">100</text>
	</g>
	<g transform="matrix(1,0,0,1,467.4566,497.4099)">
		<text transform="matrix(1 0 0 1 0 12)" class="st1 st5">100</text>
	</g>
	<g transform="matrix(1,0,0,1,297.111,2643.6236)">
		<text transform="matrix(1 0 0 1 -3.008594e-05 12)" class="st1 st5">99</text>
	</g>
	<g transform="matrix(1,0,0,1,576.368,829.6248)">
		<text transform="matrix(1 0 0 1 0 11.9999)" class="st1 st5">100</text>
	</g>
	<g transform="matrix(1,0,0,1,248.4269,3286.9604)">
		<text transform="matrix(1 0 0 1 -1.511719e-05 12)" class="st1 st5">100</text>
	</g>
	<g transform="matrix(1,0,0,1,433.8964,1800.5624)">
		<text transform="matrix(1 0 0 1 -3.069531e-05 12)" class="st1 st5">100</text>
	</g>
	<g transform="matrix(1,0,0,1,838.1955,1610.0662)">
		<text transform="matrix(1 0 0 1 6.064062e-05 12)" class="st1 st5">98</text>
	</g>
	<g transform="matrix(1,0,0,1,427.3086,344.4856)">
		<text transform="matrix(1 0 0 1 0 12)" class="st1 st5">100</text>
	</g>
	<g transform="matrix(1,0,0,1,364.6848,2780.7282)">
		<text transform="matrix(1 0 0 1 0 12)" class="st1 st5">47</text>
	</g>
	<g transform="matrix(1,0,0,1,458.9003,2506.5191)">
		<text transform="matrix(1 0 0 1 -3.044531e-05 12)" class="st1 st5">100</text>
	</g>
</g>
</svg>
