<?xml version="1.0" encoding="utf-8"?>
<!-- Generator: Adobe Illustrator 26.5.0, SVG Export Plug-In . SVG Version: 6.00 Build 0)  -->
<svg version="1.1" id="Layer_1" xmlns="http://www.w3.org/2000/svg" xmlns:xlink="http://www.w3.org/1999/xlink" x="0px" y="0px"
	 viewBox="0 0 1087 912" style="enable-background:new 0 0 1087 912;" xml:space="preserve">
<style type="text/css">
	.st0{fill:none;stroke:#000000;stroke-linecap:round;stroke-linejoin:round;stroke-miterlimit:10;}
	.st1{font-family:'Helvetica';}
	.st2{font-size:10px;}
	.st3{fill:none;stroke:#000000;stroke-width:2;stroke-miterlimit:10;}
	.st4{font-family:'ArialMT';}
	.st5{font-size:12px;}
	.st6{font-size:8px;}
</style>
<g>
	<g transform="translate(6,6)">
		<line class="st0" x1="267.5" y1="882" x2="346.2" y2="882"/>
		<text transform="matrix(1 0 0 1 298.937 897)" class="st1 st2">0.2</text>
	</g>
	<g transform="translate(6,6)">
		<path class="st3" d="M457.9,643.8H200.6v26.5"/>
		<path class="st3" d="M514.6,484.6h-29.9v-46.4"/>
		<path class="st3" d="M613.7,696.8h-413v-26.5"/>
		<path class="st3" d="M602.2,219.2h-16.7v-26.5"/>
		<path class="st3" d="M549,60.1h-54.1V33.5"/>
		<path class="st3" d="M97.1,769.8h-91V612.7"/>
		<path class="st3" d="M613.7,166.2h-28.1v26.5"/>
		<path class="st3" d="M507.7,325.4h-1.2v26.5"/>
		<path class="st3" d="M328.3,749.9H153.1v-39.8"/>
		<path class="st3" d="M471.8,73.3h-14.5v79.6"/>
		<path class="st3" d="M506.8,378.4h-0.3v-26.5"/>
		<path class="st3" d="M506.5,351.9h-3.3v39.8"/>
		<path class="st3" d="M407.6,320.4h-84.9v135.1"/>
		<path class="st3" d="M503.9,537.6H471v-49.7"/>
		<path class="st3" d="M405.2,590.7h-82.5V455.5"/>
		<path class="st3" d="M153.1,710.1h-56v59.7"/>
		<path class="st3" d="M576.8,272.3H474.5v-39.8"/>
		<path class="st3" d="M322.6,455.5H6.1v157.1"/>
		<path class="st3" d="M542.7,7h-47.8v26.5"/>
		<path class="st3" d="M200.6,670.3h-47.5v39.8"/>
		<path class="st3" d="M0,612.7h6.1"/>
		<path class="st3" d="M274.9,829.5H97.1v-59.7"/>
		<path class="st3" d="M585.6,192.7h-111v39.8"/>
		<path class="st3" d="M484.7,438.1H471v49.7"/>
		<path class="st3" d="M457.4,152.9h-49.8v167.5"/>
		<path class="st3" d="M344.5,856h-69.7v-26.5"/>
		<path class="st3" d="M474.5,232.5h-17.2v-79.6"/>
		<path class="st3" d="M508.5,431.5h-5.4v-39.8"/>
		<path class="st3" d="M543.4,113.1h-71.6V73.3"/>
		<path class="st3" d="M503.2,391.7h-18.5v46.4"/>
		<path class="st3" d="M471,487.9h-63.4V320.4"/>
		<path class="st3" d="M494.9,33.5h-23.1v39.8"/>
		<path class="st3" d="M348.6,802.9h-73.7v26.5"/>
		<text transform="matrix(1 0 0 1 467.9292 647.75)" class="st4 st5">Salmon gill poxvirus YP 009162537.1</text>
	</g>
	<g transform="matrix(1,0,0,1,519.8914,536.625)">
		<text transform="matrix(1 0 0 1 0 11)" class="st4 st5">Turkeypox virus YP 009177121.1</text>
	</g>
	<g transform="matrix(1,0,0,1,421.1666,589.6875)">
		<text transform="matrix(1 0 0 1 3.097656e-05 11)" class="st4 st5">Nile crocodilepox virus ABJ08990.1</text>
	</g>
	<g transform="matrix(1,0,0,1,530.5569,483.5625)">
		<text transform="matrix(1 0 0 1 0 11)" class="st4 st5">Canarypox virus AAR83528.1</text>
	</g>
	<g transform="matrix(1,0,0,1,629.6846,695.8125)">
		<text transform="matrix(1 0 0 1 0 11)" class="st4 st5">Synchiropus poxvirus </text>
	</g>
	<g transform="matrix(1,0,0,1,592.7581,271.3125)">
		<text transform="matrix(1 0 0 1 0 11)" class="st4 st5">Pteropox virus ANS71158.1</text>
	</g>
	<g transform="matrix(1,0,0,1,618.2283,218.25)">
		<text transform="matrix(1 0 0 1 0 11)" class="st4 st5">Bovine papular stomatitis virus AAR98413.1</text>
	</g>
	<g transform="matrix(1,0,0,1,564.9558,59.0625)">
		<text transform="matrix(1 0 0 1 0 11)" class="st4 st5">Myxoma virus QAV34381.1</text>
	</g>
	<g transform="matrix(1,0,0,1,558.677,6)">
		<text transform="matrix(1 0 0 1 0 11)" class="st4 st5">Vaccinia virus ALF36255.1</text>
	</g>
	<g transform="matrix(1,0,0,1,360.5347,855)">
		<text transform="matrix(1 0 0 1 -3.003125e-05 11)" class="st4 st5">Zebrasoma veliferum poxvirus </text>
	</g>
	<g transform="matrix(1,0,0,1,629.6846,165.1875)">
		<text transform="matrix(1 0 0 1 0 11)" class="st4 st5">Orf virus AAR98151.1</text>
	</g>
	<g transform="matrix(1,0,0,1,523.6992,324.375)">
		<text transform="matrix(1 0 0 1 0 11)" class="st4 st5">Penguinpox virus AID46873.1</text>
	</g>
	<g transform="matrix(1,0,0,1,344.3406,748.875)">
		<text transform="matrix(1 0 0 1 -3.082812e-05 11)" class="st4 st5">Carp edema virus BCT22721.1</text>
	</g>
	<g transform="matrix(1,0,0,1,522.7842,377.4375)">
		<text transform="matrix(1 0 0 1 0 11)" class="st4 st5">Flamingopox virus FGPVKD09 AUD40241.1</text>
	</g>
	<g transform="matrix(1,0,0,1,524.5427,430.5)">
		<text transform="matrix(1 0 0 1 0 11)" class="st4 st5">Fowlpox virus AAF44481.1</text>
	</g>
	<g transform="matrix(1,0,0,1,559.4164,112.125)">
		<text transform="matrix(1 0 0 1 0 11)" class="st4 st5">Squirrelpox virus CCD83246.1</text>
	</g>
	<g transform="matrix(1,0,0,1,364.6189,801.9375)">
		<text transform="matrix(1 0 0 1 0 11)" class="st4 st5">Scolopsis bilineata poxvirus </text>
	</g>
	<g transform="matrix(1,0,0,1,169.1247,711.0781)">
		<text transform="matrix(1 0 0 1 0 8)" class="st1 st6">65</text>
	</g>
	<g transform="matrix(1,0,0,1,338.6178,456.5439)">
		<text transform="matrix(1 0 0 1 0 8)" class="st1 st6">100</text>
	</g>
	<g transform="matrix(1,0,0,1,113.0978,770.7734)">
		<text transform="matrix(1 0 0 1 -2.267969e-05 8)" class="st1 st6">100</text>
	</g>
	<g transform="matrix(1,0,0,1,216.6441,671.2812)">
		<text transform="matrix(1 0 0 1 0 8)" class="st1 st6">52</text>
	</g>
	<g transform="matrix(1,0,0,1,290.881,830.4688)">
		<text transform="matrix(1 0 0 1 -3.055469e-05 8)" class="st1 st6">92</text>
	</g>
	<g transform="matrix(1,0,0,1,601.5739,193.7188)">
		<text transform="matrix(1 0 0 1 0 8)" class="st1 st6">100</text>
	</g>
	<g transform="matrix(1,0,0,1,473.3586,153.9219)">
		<text transform="matrix(1 0 0 1 3.057813e-05 8)" class="st1 st6">100</text>
	</g>
	<g transform="matrix(1,0,0,1,500.6827,439.1328)">
		<text transform="matrix(1 0 0 1 3.025781e-05 8)" class="st1 st6">98</text>
	</g>
	<g transform="matrix(1,0,0,1,487.8263,74.3281)">
		<text transform="matrix(1 0 0 1 0 8)" class="st1 st6">66</text>
	</g>
	<g transform="matrix(1,0,0,1,490.542,233.5156)">
		<text transform="matrix(1 0 0 1 0 8)" class="st1 st6">88</text>
	</g>
	<g transform="matrix(1,0,0,1,522.4649,352.9062)">
		<text transform="matrix(1 0 0 1 0 8)" class="st1 st6">98</text>
	</g>
	<g transform="matrix(1,0,0,1,519.1802,392.7031)">
		<text transform="matrix(1 0 0 1 0 8)" class="st1 st6">100</text>
	</g>
	<g transform="matrix(1,0,0,1,486.9879,488.8789)">
		<text transform="matrix(1 0 0 1 0 8)" class="st1 st6">100</text>
	</g>
	<g transform="matrix(1,0,0,1,510.9024,34.5312)">
		<text transform="matrix(1 0 0 1 0 8)" class="st1 st6">100</text>
	</g>
	<g transform="matrix(1,0,0,1,423.5626,321.4004)">
		<text transform="matrix(1 0 0 1 3.007031e-05 8)" class="st1 st6">100</text>
	</g>
</g>
</svg>
